<?xml version="1.0" encoding="UTF-8" standalone="no"?>
<!-- Created with Inkscape (http://www.inkscape.org/) -->

<svg
   xmlns:dc="http://purl.org/dc/elements/1.1/"
   xmlns:cc="http://creativecommons.org/ns#"
   xmlns:rdf="http://www.w3.org/1999/02/22-rdf-syntax-ns#"
   xmlns:svg="http://www.w3.org/2000/svg"
   xmlns="http://www.w3.org/2000/svg"
   xmlns:sodipodi="http://sodipodi.sourceforge.net/DTD/sodipodi-0.dtd"
   xmlns:inkscape="http://www.inkscape.org/namespaces/inkscape"
   width="51.646664mm"
   height="29.633333mm"
   viewBox="0 0 51.646664 29.633333"
   version="1.1"
   id="svg8"
   inkscape:version="0.92.5 (2060ec1f9f, 2020-04-08)"
   sodipodi:docname="torrentzFilmes.svg">
  <defs
     id="defs2" />
  <sodipodi:namedview
     id="base"
     pagecolor="#ffffff"
     bordercolor="#666666"
     borderopacity="1.0"
     inkscape:pageopacity="0.0"
     inkscape:pageshadow="2"
     inkscape:zoom="2.8"
     inkscape:cx="124.76391"
     inkscape:cy="65.663693"
     inkscape:document-units="mm"
     inkscape:current-layer="layer1"
     showgrid="false"
     fit-margin-top="0"
     fit-margin-left="0"
     fit-margin-right="0"
     fit-margin-bottom="0"
     showguides="true"
     inkscape:guide-bbox="true"
     inkscape:window-width="1366"
     inkscape:window-height="717"
     inkscape:window-x="0"
     inkscape:window-y="27"
     inkscape:window-maximized="1" />
  <metadata
     id="metadata5">
    <rdf:RDF>
      <cc:Work
         rdf:about="">
        <dc:format>image/svg+xml</dc:format>
        <dc:type
           rdf:resource="http://purl.org/dc/dcmitype/StillImage" />
        <dc:title></dc:title>
      </cc:Work>
    </rdf:RDF>
  </metadata>
  <g
     inkscape:label="Camada 1"
     inkscape:groupmode="layer"
     id="layer1"
     transform="translate(-12.744626,-14.290488)">
    <rect
       style="opacity:0.75;fill:#999999;fill-opacity:1;stroke:none;stroke-width:0.15875;stroke-miterlimit:4;stroke-dasharray:none;stroke-opacity:1"
       id="rect826"
       width="51.646664"
       height="29.633333"
       x="12.744626"
       y="14.290488" />
    <path
       style="fill:#000000;stroke-width:0.01738324"
       d="M 16.669143,41.687354 C 16.377418,41.652114 16.12791,41.525536 15.904281,41.299345 15.730315,41.123388 15.632358,40.96089 15.562635,40.732598 l -0.03982,-0.130374 -0.0055,-1.486267 c -0.0035,-0.941815 9.39e-4,-1.527658 0.01205,-1.599258 0.05873,-0.378322 0.282591,-0.714715 0.625027,-0.939215 l 0.04057,-0.02659 -0.101888,-0.104202 c -0.753169,-0.770275 -0.773914,-1.94741 -0.0485,-2.752239 0.270407,-0.300011 0.746588,-0.551844 1.156903,-0.61184 0.203106,-0.0297 0.614906,-0.01201 0.785831,0.03375 0.786926,0.210677 1.358033,0.835034 1.482469,1.620692 0.03724,0.235123 0.02574,0.593234 -0.02518,0.784022 -0.07405,0.277438 -0.213565,0.557083 -0.384216,0.770111 l -0.06963,0.08692 0.593219,0.0046 c 0.326271,0.0025 0.596995,8.01e-4 0.60161,-0.0038 0.0046,-0.0046 -0.03615,-0.0565 -0.09059,-0.1153 -0.280841,-0.303342 -0.482746,-0.719228 -0.555617,-1.144466 -0.03626,-0.211619 -0.03683,-0.607084 -0.0012,-0.811595 0.05187,-0.297436 0.180599,-0.615307 0.358224,-0.884553 0.115554,-0.175159 0.451943,-0.513965 0.620364,-0.624822 0.416468,-0.274123 0.829946,-0.397958 1.323858,-0.39649 0.402167,0.0012 0.716522,0.07788 1.058089,0.258114 0.222826,0.117577 0.302843,0.172241 0.477811,0.326421 0.677092,0.596644 0.943434,1.58597 0.661573,2.457403 -0.144285,0.446087 -0.468927,0.883337 -0.863075,1.162451 l -0.150031,0.106243 0.07026,0.06759 c 0.21221,0.20415 0.33839,0.463147 0.385826,0.791947 l 0.01965,0.136202 0.990845,-0.661769 0.990844,-0.661769 0.09131,0.0086 c 0.181431,0.01709 0.384741,0.15035 0.481632,0.315683 0.100474,0.171444 0.09741,0.09239 0.0923,2.382883 l -0.0047,2.10162 -0.05365,0.112991 c -0.09893,0.20833 -0.27209,0.341289 -0.499158,0.383265 l -0.09717,0.01796 -0.991675,-0.66127 c -0.545422,-0.363698 -0.994628,-0.661269 -0.998237,-0.661269 -0.0036,0 -0.01194,0.04889 -0.01851,0.108645 -0.06054,0.550487 -0.424179,0.989243 -0.957312,1.155069 l -0.156449,0.04866 -2.79001,0.0024 c -1.534505,0.0013 -2.844767,-0.0042 -2.911693,-0.01233 z m 1.164678,-5.346369 c 0.153052,-0.03788 0.402637,-0.165912 0.517837,-0.265649 0.206551,-0.178826 0.331741,-0.360294 0.417972,-0.605864 0.04979,-0.141789 0.05334,-0.168302 0.05414,-0.40381 7.38e-4,-0.217463 -0.0047,-0.26989 -0.03993,-0.381993 -0.13773,-0.43883 -0.444563,-0.752226 -0.880494,-0.899328 -0.127093,-0.04289 -0.161516,-0.04687 -0.399815,-0.04628 -0.237531,5.86e-4 -0.273131,0.0049 -0.399815,0.04812 -0.43856,0.149725 -0.753687,0.480295 -0.88094,0.92411 -0.04555,0.158879 -0.05378,0.452232 -0.01729,0.616122 0.101847,0.457334 0.440836,0.838511 0.873998,0.982767 0.239046,0.07961 0.514264,0.09121 0.754327,0.03181 z m 4.406651,-0.0054 c 0.462417,-0.117372 0.863108,-0.443751 1.078911,-0.878818 0.110835,-0.223446 0.156051,-0.399415 0.167503,-0.651871 0.03625,-0.799068 -0.473325,-1.493842 -1.246414,-1.699414 -0.225481,-0.05996 -0.580085,-0.06346 -0.794738,-0.0079 -0.603826,0.156432 -1.063953,0.59798 -1.221475,1.172151 -0.104102,0.379456 -0.06962,0.798716 0.09499,1.154998 0.133632,0.28923 0.378536,0.562698 0.649471,0.725225 0.153239,0.09192 0.425395,0.193261 0.587713,0.218836 0.16706,0.02632 0.516186,0.0093 0.684037,-0.03326 z"
       id="path851"
       inkscape:connector-curvature="0" />
    <text
       xml:space="preserve"
       style="font-style:normal;font-variant:normal;font-weight:normal;font-stretch:normal;font-size:5.3484211px;line-height:1.25;font-family:CromwellNFW01-Regular;-inkscape-font-specification:CromwellNFW01-Regular;font-variant-ligatures:normal;font-variant-caps:normal;font-variant-numeric:normal;font-feature-settings:normal;text-align:justify;letter-spacing:0px;word-spacing:0px;writing-mode:lr-tb;text-anchor:start;fill:#000000;fill-opacity:1;stroke:none;stroke-width:0.16045265"
       x="45.26759"
       y="19.977859"
       id="text843"><tspan
         sodipodi:role="line"
         id="tspan841"
         x="45.26759"
         y="19.977859"
         style="stroke-width:0.16045265">Torrentz</tspan></text>
    <text
       id="text847"
       y="24.610527"
       x="35.654701"
       style="font-style:normal;font-variant:normal;font-weight:normal;font-stretch:normal;font-size:10.47225189px;line-height:1.25;font-family:CromwellNFW01-Regular;-inkscape-font-specification:CromwellNFW01-Regular;font-variant-ligatures:normal;font-variant-caps:normal;font-variant-numeric:normal;font-feature-settings:normal;text-align:justify;letter-spacing:0px;word-spacing:0px;writing-mode:lr-tb;text-anchor:start;fill:#000000;fill-opacity:1;stroke:none;stroke-width:0.31416756"
       xml:space="preserve"><tspan
         style="stroke-width:0.31416756"
         y="24.610527"
         x="35.654701"
         id="tspan845"
         sodipodi:role="line">Filmes</tspan></text>
  </g>
</svg>
